<svg width="27" height="24" viewBox="0 0 27 24" fill="none" xmlns="http://www.w3.org/2000/svg">
<path d="M26.3231 21.4796L14.721 0.951665C14.1858 0.00178865 12.8213 0.00178865 12.286 0.951665L0.676445 21.4796C0.148736 22.4144 0.81968 23.5678 1.89771 23.5678H25.1094C26.1799 23.5678 26.8508 22.4144 26.3231 21.4796Z" fill="white"/>
<path d="M2.5835 21.5622L13.4995 2.24805L24.4156 21.5622H2.5835Z" fill="#FFD05B"/>
<path d="M14.9093 10.9777C14.9093 13.6238 14.2761 17.6947 13.4996 17.6947C12.7156 17.6947 12.0898 13.6238 12.0898 10.9777C12.0898 8.33163 12.7231 8.10547 13.4996 8.10547C14.2836 8.10547 14.9093 8.33163 14.9093 10.9777Z" fill="white"/>
<path d="M13.4998 19.8736C13.9411 19.8736 14.2989 19.5158 14.2989 19.0745C14.2989 18.6332 13.9411 18.2754 13.4998 18.2754C13.0585 18.2754 12.7007 18.6332 12.7007 19.0745C12.7007 19.5158 13.0585 19.8736 13.4998 19.8736Z" fill="white"/>
</svg>
