<svg width="18" height="18" viewBox="0 0 18 18" fill="none" xmlns="http://www.w3.org/2000/svg">
<path opacity="0.07" d="M13.9879 4.25611C13.9901 4.25597 13.9918 4.25534 13.994 4.2552C14.0692 4.2508 14.1389 4.23948 14.2043 4.22338C14.2267 4.21782 14.2461 4.20942 14.2674 4.20257C14.3101 4.18886 14.3516 4.17409 14.3892 4.15542C14.4106 4.1448 14.4298 4.1325 14.4495 4.12037C14.4819 4.10044 14.5122 4.0792 14.5399 4.05551C14.5571 4.04074 14.5733 4.02563 14.5886 4.00952C14.6134 3.98337 14.6348 3.95535 14.6545 3.92589C14.6661 3.90852 14.6783 3.89179 14.688 3.87333C14.7063 3.83891 14.7194 3.80203 14.7311 3.7642C14.7362 3.74764 14.7434 3.73228 14.7472 3.71513C14.7597 3.65895 14.7661 3.6002 14.7641 3.5385C14.7639 3.5315 14.7616 3.52398 14.7611 3.51691C14.7582 3.46777 14.7529 3.41777 14.7406 3.36599C14.7399 3.36757 14.7385 3.36873 14.7378 3.37031C14.7226 3.30503 14.6995 3.23805 14.6697 3.16992L13.5605 4.27907L13.9879 4.25611Z" fill="#040000"/>
<path d="M16.2649 6.98846V17.3226C16.2649 17.6944 15.9622 18 15.5875 18H2.09121C1.71648 18 1.41382 17.6944 1.41382 17.3226V6.98846C1.41382 6.61661 1.71648 6.31104 2.09121 6.31104H15.5875C15.9622 6.31104 16.2649 6.61658 16.2649 6.98846Z" fill="white"/>
<path opacity="0.1" d="M16.2649 6.98846V10.4649H1.41382V6.98846C1.41382 6.61661 1.71648 6.31104 2.09121 6.31104H15.5875C15.9623 6.31104 16.2649 6.61658 16.2649 6.98846Z" fill="#0F0F0F"/>
<path d="M17.1787 5.54164V8.11581C17.1787 8.21383 17.1643 8.30893 17.1384 8.40118C17.0259 8.79609 16.6829 9.0959 16.2649 9.14779C16.2246 9.15355 16.1813 9.15644 16.1381 9.15644H1.54063C1.49738 9.15644 1.45414 9.15355 1.41382 9.14779C0.900676 9.08433 0.5 8.6433 0.5 8.11578V5.5416C0.5 4.97084 0.966981 4.50098 1.54063 4.50098H16.1381C16.7117 4.50101 17.1787 4.97087 17.1787 5.54164Z" fill="white"/>
<path d="M10.5545 4.75439C10.5545 4.81489 10.5488 4.87255 10.5315 4.92732C10.4046 5.45773 9.69553 5.86129 8.8394 5.86129C7.98328 5.86129 7.27414 5.45773 7.14733 4.92732C7.13003 4.87255 7.12427 4.81489 7.12427 4.75439C7.12427 4.69385 7.13003 4.6362 7.14733 4.58142C7.1531 4.55259 7.15886 4.52665 7.17039 4.5007C7.17039 4.49494 7.17328 4.49205 7.17616 4.48917C7.17904 4.47476 7.18481 4.46034 7.19346 4.44593C7.26841 4.27584 7.40387 4.12309 7.58548 4.00201C7.79589 3.85502 8.06399 3.74548 8.36954 3.6907C8.51656 3.66188 8.67508 3.64746 8.8394 3.64746C9.00372 3.64746 9.16224 3.66188 9.30926 3.6907C9.61481 3.74548 9.88291 3.85502 10.0934 4.00201C10.275 4.12309 10.4104 4.27584 10.4854 4.44593C10.494 4.46034 10.4998 4.47476 10.5027 4.48917C10.5056 4.49205 10.5084 4.49494 10.5084 4.5007C10.52 4.52665 10.5257 4.55259 10.5315 4.58142C10.5488 4.6362 10.5545 4.69382 10.5545 4.75439Z" fill="url(#paint0_linear_409_14506)"/>
<path d="M10.5323 9.11035H7.14648V17.9923H10.5323V9.11035Z" fill="#B02441"/>
<path d="M10.5314 4.48926H7.14722V9.15618H10.5314V4.48926Z" fill="#CE3659"/>
<path d="M8.51945 4.08861C8.51945 4.17797 8.49062 4.25578 8.43296 4.3192C8.42431 4.33073 8.4099 4.34226 8.39837 4.35091C8.28594 4.44604 8.10144 4.49217 7.85067 4.48063L7.19346 4.44604L3.69109 4.25578C3.41722 4.24136 3.20681 4.14623 3.0742 3.99636C3.04537 3.96176 3.01943 3.92717 2.9964 3.88969C2.92721 3.76861 2.90127 3.62447 2.92145 3.46595C2.92145 3.45154 2.92433 3.43713 2.9301 3.41983C2.9301 3.40253 2.93298 3.38524 2.94163 3.36794C2.95892 3.28434 2.99063 3.20074 3.03388 3.11429L4.38004 0.488221C4.6827 -0.105603 5.27365 -0.166107 5.69162 0.352764L8.30324 3.60145C8.32918 3.63316 8.34936 3.66199 8.36954 3.69081C8.39837 3.73117 8.42143 3.76861 8.43873 3.80609C8.45314 3.83204 8.46467 3.85798 8.47332 3.88104C8.48485 3.90699 8.4935 3.93294 8.49927 3.956C8.50503 3.97906 8.5108 4.00212 8.51368 4.02519C8.51656 4.04536 8.51945 4.06843 8.51945 4.08861Z" fill="url(#paint1_linear_409_14506)"/>
<path opacity="0.07" d="M8.51945 4.08879C8.51945 4.17815 8.49062 4.25595 8.43296 4.31938C8.42431 4.33091 8.4099 4.34244 8.39837 4.35109C8.28594 4.44622 8.10144 4.49234 7.85067 4.48081L7.19346 4.44622L3.69109 4.25595C3.41722 4.24154 3.20681 4.14641 3.0742 3.99654C3.04537 3.96194 3.01943 3.92735 2.9964 3.88987C2.92721 3.76879 2.90127 3.62465 2.92145 3.46613C2.92145 3.45172 2.92433 3.4373 2.9301 3.42001C2.9301 3.40271 2.93298 3.38541 2.93874 3.36523L2.94163 3.36812C3.04541 3.60736 3.29906 3.77168 3.66226 3.78897L7.58549 4.00227L7.82184 4.0138C8.13603 4.03109 8.34936 3.95038 8.43873 3.80623C8.45314 3.83218 8.46467 3.85812 8.47332 3.88119C8.48485 3.90713 8.4935 3.93308 8.49927 3.95614C8.50503 3.9792 8.5108 4.00227 8.51368 4.02533C8.51656 4.04554 8.51945 4.06861 8.51945 4.08879Z" fill="#0F0F0F"/>
<path d="M14.6825 3.88986C14.6594 3.92734 14.6335 3.96193 14.6047 3.99652C14.4721 4.1464 14.2616 4.24153 13.9878 4.25594L10.4854 4.44621L9.8282 4.4808C9.57743 4.49233 9.39293 4.44621 9.2805 4.35108C9.26897 4.34243 9.25456 4.3309 9.24591 4.31936C9.18825 4.25594 9.15942 4.17811 9.15942 4.08877C9.15942 4.06859 9.16231 4.04553 9.16519 4.02535C9.16807 4.00229 9.17384 3.97923 9.1796 3.95616C9.18537 3.9331 9.19402 3.90716 9.20555 3.88121C9.2142 3.85815 9.22573 3.8322 9.24014 3.80626C9.25744 3.76878 9.2805 3.73131 9.30933 3.69098C9.32951 3.66215 9.34969 3.63333 9.37563 3.60161L11.9873 0.352931C12.2207 0.0618019 12.509 -0.0448622 12.7713 0.0214073C12.976 0.0704151 13.1662 0.226087 13.2988 0.488388L13.3622 0.612349L14.645 3.11445C14.6882 3.20094 14.7199 3.2845 14.7372 3.36811C14.7459 3.3854 14.7488 3.4027 14.7488 3.42C14.7545 3.43729 14.7574 3.45171 14.7574 3.46612C14.7776 3.62468 14.7517 3.76878 14.6825 3.88986Z" fill="url(#paint2_linear_409_14506)"/>
<path opacity="0.07" d="M9.82668 4.47993L13.9879 4.25623C14.5562 4.22575 14.8551 3.84609 14.7407 3.36621C14.6357 3.60707 14.3822 3.77026 14.0179 3.78988L9.85691 4.01333C9.54159 4.03024 9.33009 3.95037 9.23932 3.80633C9.02265 4.22033 9.25243 4.51086 9.82668 4.47993Z" fill="#0F0F0F"/>
<path opacity="0.03" d="M17.1787 5.54157V8.11574C17.1787 8.21376 17.1643 8.30885 17.1384 8.4011C17.0259 8.79313 16.6829 9.09006 16.2649 9.14192V17.3227C16.2649 17.6946 15.9623 18.0001 15.5876 18.0001H2.09121C1.71648 18.0001 1.41382 17.6946 1.41382 17.3227V16.4263L7.14728 10.6928L7.37502 10.4651L8.68371 9.15637L11.5288 6.31124L13.3391 4.50098H16.1381C16.7117 4.50094 17.1787 4.9708 17.1787 5.54157Z" fill="#0F0F0F"/>
<defs>
<linearGradient id="paint0_linear_409_14506" x1="7.12424" y1="4.75437" x2="10.5545" y2="4.75437" gradientUnits="userSpaceOnUse">
<stop offset="0.0338" stop-color="#AD1C41"/>
<stop offset="0.9903" stop-color="#AB1F24"/>
</linearGradient>
<linearGradient id="paint1_linear_409_14506" x1="2.9148" y1="2.24119" x2="8.51945" y2="2.24119" gradientUnits="userSpaceOnUse">
<stop offset="0.0338" stop-color="#BB2C4F"/>
<stop offset="0.9903" stop-color="#BA2822"/>
</linearGradient>
<linearGradient id="paint2_linear_409_14506" x1="9.15946" y1="2.24249" x2="14.7641" y2="2.24249" gradientUnits="userSpaceOnUse">
<stop offset="0.0338" stop-color="#BB2C4F"/>
<stop offset="0.9903" stop-color="#BA2822"/>
</linearGradient>
</defs>
</svg>
