<svg width="158" height="139" viewBox="0 0 158 139" fill="none" xmlns="http://www.w3.org/2000/svg">
<path d="M72.9411 85.302L95.8935 62.3495C96.966 61.2985 97.8195 60.0452 98.4047 58.6622C98.9899 57.2793 99.2951 55.794 99.3026 54.2924C99.3102 52.7907 99.02 51.3025 98.4489 49.9137C97.8777 48.5249 97.0369 47.2631 95.9751 46.2012C94.9132 45.1394 93.6514 44.2986 92.2626 43.7274C90.8738 43.1563 89.3856 42.8661 87.8839 42.8737C86.3823 42.8813 84.897 43.1865 83.5141 43.7716C82.1311 44.3568 80.8779 45.2103 79.8268 46.2828L56.8743 69.2353C55.8018 70.2863 54.9483 71.5396 54.3632 72.9225C53.778 74.3055 53.4728 75.7907 53.4652 77.2924C53.4576 78.794 53.7478 80.2823 54.319 81.6711C54.8901 83.0599 55.7309 84.3217 56.7928 85.3835C57.8546 86.4454 59.1164 87.2862 60.5052 87.8573C61.894 88.4285 63.3823 88.7187 64.8839 88.7111C66.3856 88.7035 67.8708 88.3983 69.2538 87.8131C70.6368 87.228 71.89 86.3745 72.9411 85.302ZM68.3506 57.759L84.4173 73.8257L68.3506 57.759Z" fill="white"/>
<path d="M68.3506 57.759L84.4173 73.8257M72.9411 85.302L95.8935 62.3495C96.966 61.2985 97.8195 60.0452 98.4047 58.6622C98.9899 57.2793 99.2951 55.794 99.3026 54.2924C99.3102 52.7907 99.02 51.3025 98.4489 49.9137C97.8777 48.5249 97.0369 47.2631 95.9751 46.2012C94.9132 45.1394 93.6514 44.2986 92.2626 43.7274C90.8738 43.1563 89.3856 42.8661 87.8839 42.8737C86.3823 42.8813 84.897 43.1865 83.5141 43.7716C82.1311 44.3568 80.8779 45.2103 79.8268 46.2828L56.8743 69.2352C55.8018 70.2863 54.9483 71.5396 54.3632 72.9225C53.778 74.3055 53.4728 75.7907 53.4652 77.2924C53.4576 78.794 53.7478 80.2823 54.319 81.6711C54.8901 83.0599 55.7309 84.3217 56.7928 85.3835C57.8546 86.4454 59.1164 87.2862 60.5052 87.8573C61.894 88.4285 63.3823 88.7187 64.8839 88.7111C66.3856 88.7035 67.8708 88.3983 69.2538 87.8131C70.6368 87.228 71.89 86.3745 72.9411 85.302Z" stroke="#949FA6" stroke-width="2.5" stroke-linecap="round" stroke-linejoin="round"/>
<path d="M104.688 105.253L94.6238 115.317M94.6238 105.253L104.688 115.317" stroke="#949FA6" stroke-width="2" stroke-linecap="round" stroke-linejoin="round"/>
<path d="M135.487 14.3702C138.802 14.3702 141.49 11.6825 141.49 8.36721C141.49 5.05187 138.802 2.36426 135.487 2.36426C132.171 2.36426 129.484 5.05187 129.484 8.36721C129.484 11.6825 132.171 14.3702 135.487 14.3702Z" stroke="#949FA6" stroke-width="2" stroke-linecap="round" stroke-linejoin="round"/>
<path d="M142.991 15.8709L139.764 12.6443" stroke="#949FA6" stroke-width="2" stroke-linecap="round" stroke-linejoin="round"/>
<path d="M21.0774 135.135C24.3928 135.135 27.0804 132.448 27.0804 129.132C27.0804 125.817 24.3928 123.129 21.0774 123.129C17.7621 123.129 15.0745 125.817 15.0745 129.132C15.0745 132.448 17.7621 135.135 21.0774 135.135Z" stroke="#949FA6" stroke-width="2" stroke-linecap="round" stroke-linejoin="round"/>
<path d="M28.5811 136.636L25.3545 133.409" stroke="#949FA6" stroke-width="2" stroke-linecap="round" stroke-linejoin="round"/>
<path d="M144.182 115.582C148.863 115.582 152.657 111.787 152.657 107.107C152.657 102.426 148.863 98.6321 144.182 98.6321C139.502 98.6321 135.707 102.426 135.707 107.107C135.707 111.787 139.502 115.582 144.182 115.582Z" stroke="#949FA6" stroke-width="2" stroke-linecap="round" stroke-linejoin="round"/>
<path d="M154.775 117.7L150.22 113.145" stroke="#949FA6" stroke-width="2" stroke-linecap="round" stroke-linejoin="round"/>
<path d="M11.7643 20.2405C16.4448 20.2405 20.2391 16.4462 20.2391 11.7658C20.2391 7.08529 16.4448 3.29102 11.7643 3.29102C7.08383 3.29102 3.28955 7.08529 3.28955 11.7658C3.28955 16.4462 7.08383 20.2405 11.7643 20.2405Z" stroke="#949FA6" stroke-width="2" stroke-linecap="round" stroke-linejoin="round"/>
<path d="M22.3577 22.3591L17.8025 17.804" stroke="#949FA6" stroke-width="2" stroke-linecap="round" stroke-linejoin="round"/>
<path d="M16.7957 55.9937L6.73193 66.0574M6.73193 55.9937L16.7957 66.0574" stroke="#949FA6" stroke-width="2" stroke-linecap="round" stroke-linejoin="round"/>
<path d="M137.792 44.6055L130.377 52.0209M130.377 44.6055L137.792 52.0209" stroke="#949FA6" stroke-width="1.5" stroke-linecap="round" stroke-linejoin="round"/>
</svg>
