<svg width="66" height="73" viewBox="0 0 66 73" fill="none" xmlns="http://www.w3.org/2000/svg">
    <path
        d="M12.5 2.3335L2.25 16.0002V63.8335C2.25 65.6458 2.96994 67.3839 4.25144 68.6654C5.53294 69.9469 7.27102 70.6668 9.08333 70.6668H56.9167C58.729 70.6668 60.4671 69.9469 61.7486 68.6654C63.0301 67.3839 63.75 65.6458 63.75 63.8335V16.0002L53.5 2.3335H12.5ZM2.25 16.0002H63.75Z"
        fill="white" />
    <path
        d="M2.25 16.0002L12.5 2.3335H53.5L63.75 16.0002M2.25 16.0002V63.8335C2.25 65.6458 2.96994 67.3839 4.25144 68.6654C5.53294 69.9469 7.27102 70.6668 9.08333 70.6668H56.9167C58.729 70.6668 60.4671 69.9469 61.7486 68.6654C63.0301 67.3839 63.75 65.6458 63.75 63.8335V16.0002M2.25 16.0002H63.75"
        stroke="#DADFE2" stroke-width="4" stroke-linecap="round" stroke-linejoin="round" />
    <path
        d="M46.6666 29.667C46.6666 33.2916 45.2267 36.7678 42.6637 39.3308C40.1007 41.8938 36.6245 43.3337 32.9999 43.3337C29.3753 43.3337 25.8991 41.8938 23.3361 39.3308C20.7731 36.7678 19.3333 33.2916 19.3333 29.667"
        stroke="#6FB2A0" stroke-width="4" stroke-linecap="round" stroke-linejoin="round" />
</svg>