<svg width="44" height="34" viewBox="0 0 44 34" fill="none" xmlns="http://www.w3.org/2000/svg">
<path d="M43.9959 9.63568C43.9899 7.96202 43.5452 6.32206 42.7056 4.87815L42.7036 4.8748C40.057 0.290661 34.1907 -1.27951 29.569 1.38884L5.78326 15.1215C3.56308 16.4034 1.93882 18.5074 1.26779 20.9707C0.596771 23.434 0.933955 26.0548 2.20517 28.2566L2.20711 28.26C3.03778 29.7086 4.2375 30.9119 5.68621 31.7493L5.69026 31.747C7.15711 32.5879 8.82366 33.0268 10.5215 33.0193C12.2194 33.0118 13.8884 32.5581 15.36 31.7042L39.145 17.9719C40.6176 17.1273 41.8422 15.9111 42.6942 14.4469C43.5463 12.9827 43.9954 11.3227 43.9959 9.63568Z" fill="#3892CC"/>
<path d="M43.9944 9.63298C42.9826 11.1813 41.6196 12.4723 40.0164 13.4008L25.4849 21.7905L27.2487 24.8455L39.1439 17.9778C40.6175 17.1322 41.8426 15.9145 42.6945 14.4487C43.5465 12.9829 43.995 11.3213 43.9944 9.63298Z" fill="#37807A"/>
<path d="M42.7038 4.8766C40.0571 0.292454 34.1909 -1.27772 29.5691 1.39064L17.6726 8.25913L25.4849 21.7905L40.0147 13.401C41.6173 12.477 42.9804 11.1902 43.9927 9.64565C43.9894 7.96928 43.5451 6.32618 42.704 4.88006L42.7038 4.8766Z" fill="#6FB2A0"/>
<path d="M10.9615 30.1757C9.34423 31.1058 7.53139 31.6428 5.67153 31.7426C7.14013 32.5876 8.80962 33.0295 10.511 33.0237C12.2124 33.0178 13.8853 32.5644 15.3602 31.7094L27.2487 24.8455L25.4849 21.7905L10.9615 30.1757Z" fill="#98A3A7"/>
<path d="M25.4849 21.7905L17.6726 8.25913L5.78444 15.1236C3.56425 16.4054 1.93999 18.5094 1.26897 20.9727C0.597945 23.436 0.935129 26.0568 2.20634 28.2586L2.20828 28.262C3.03836 29.7096 4.23747 30.9117 5.68545 31.748C7.54218 31.6464 9.35131 31.1073 10.964 30.1752L25.4849 21.7905Z" fill="#DADFE2"/>
<path d="M30.5468 5.0422C30.5542 5.03791 30.567 5.04128 30.5747 5.03593C31.3377 4.60548 32.158 4.28579 33.0106 4.08663C34.8487 3.65024 36.5094 3.86533 37.9403 4.71296C38.0367 4.76939 38.1441 4.80502 38.2555 4.81757C38.3954 4.83296 38.5372 4.81052 38.666 4.7526C38.7947 4.69469 38.9057 4.60344 38.9873 4.48842C39.0688 4.37339 39.1179 4.23884 39.1295 4.0989C39.141 3.95896 39.1145 3.8188 39.0528 3.6931C39.0446 3.67904 39.0365 3.66497 39.0284 3.65091C38.9619 3.53582 38.8669 3.43982 38.7522 3.37208C36.9724 2.31614 34.8448 2.04389 32.6064 2.5837C31.6108 2.823 30.6537 3.203 29.7645 3.7121L18.7266 10.0848L19.4997 11.4238L30.5468 5.0422Z" fill="#95D0BB"/>
<path d="M4.21659 24.1852C4.19836 22.5228 4.84554 20.9824 6.1406 19.6054C6.7394 18.9666 7.42546 18.4148 8.17833 17.9665C8.18643 17.9618 8.19027 17.9498 8.19838 17.9451L19.4982 11.4212L18.7251 10.0821L7.43407 16.601C6.54855 17.1166 5.74093 17.7554 5.03588 18.498C3.44918 20.1666 2.62282 22.1434 2.64535 24.2139C2.64673 24.3474 2.68246 24.4779 2.74911 24.5932C2.75723 24.6073 2.76535 24.6214 2.77308 24.6347C2.77356 24.636 2.77421 24.6371 2.77502 24.6381C2.85293 24.7545 2.96105 24.8477 3.08801 24.9078C3.21496 24.9679 3.35608 24.9927 3.49653 24.9797C3.63698 24.9666 3.77158 24.9162 3.88619 24.8336C4.0008 24.7511 4.0912 24.6395 4.14788 24.5105C4.19408 24.4081 4.21752 24.2971 4.21659 24.1852Z" fill="#F9F9FA"/>
</svg>
