<svg width="29" height="28" viewBox="0 0 29 28" fill="none" xmlns="http://www.w3.org/2000/svg">
<g clip-path="url(#clip0_409_14600)">
<path d="M25.876 21.419H24.6912C25.0191 21.1324 25.3774 20.7869 25.7366 20.3809C27.3372 18.5699 28.1832 16.4167 28.1832 14.1535C28.1832 11.891 27.3372 9.73785 25.7366 7.92688C24.534 6.56542 23.3332 5.87567 23.2825 5.84701V5.84743C23.1971 5.79869 23.0973 5.77002 22.9909 5.77002C22.6722 5.77002 22.4146 6.02053 22.4146 6.32922C22.4146 6.53429 22.5286 6.71316 22.6985 6.81017V6.81059C22.7086 6.81714 23.8073 7.45332 24.8864 8.68335C26.3087 10.3052 27.0288 12.1456 27.0288 14.1535C27.0288 16.1613 26.3087 18.0017 24.8864 19.6244C24.4208 20.1549 23.9517 20.5757 23.5672 20.8819V19.1839C23.5672 18.8753 23.3095 18.6247 22.9909 18.6247C22.6723 18.6247 22.4146 18.8753 22.4146 19.1839V21.9781C22.4146 22.2868 22.6723 22.5373 22.9909 22.5373H25.876C26.1938 22.5373 26.4524 22.2868 26.4524 21.9781C26.4524 21.6695 26.1938 21.419 25.876 21.419Z" fill="white"/>
<path d="M5.68303 5.77002H2.79826C2.47967 5.77002 2.22151 6.02053 2.22151 6.32922C2.22151 6.63785 2.47967 6.88794 2.79826 6.88794H3.98227C3.65432 7.17493 3.29602 7.52077 2.93735 7.92683C1.33667 9.7378 0.490723 11.891 0.490723 14.1535C0.490723 16.4167 1.33667 18.5699 2.93735 20.3808C4.13991 21.7415 5.3408 22.4316 5.39106 22.4603H5.39149C5.47729 22.5086 5.57656 22.5373 5.68308 22.5373C6.00167 22.5373 6.25983 22.2868 6.25983 21.9781C6.25983 21.7726 6.14536 21.5941 5.97543 21.4975L5.97586 21.4967C5.96488 21.4902 4.86624 20.854 3.78751 19.6243C2.36557 18.0017 1.64471 16.1613 1.64471 14.1535C1.64471 12.1456 2.36557 10.3052 3.78746 8.68335C4.25308 8.1524 4.72212 7.73203 5.10622 7.42544V9.12337C5.10622 9.43242 5.36438 9.68256 5.68303 9.68256C6.00161 9.68256 6.25977 9.43247 6.25977 9.12337V6.32922C6.25977 6.02058 6.00161 5.77002 5.68303 5.77002Z" fill="white"/>
<path d="M19.6257 5.76992C18.7349 3.79648 16.7025 2.41699 14.337 2.41699C11.9715 2.41699 9.93863 3.79648 9.04832 5.76997L8.56787 6.32917V8.00581C8.56787 11.0923 11.1509 13.5946 14.337 13.5946C17.523 13.5946 20.1057 11.0923 20.1057 8.00581V6.32917L19.6257 5.76992Z" fill="#F6BB42"/>
<path d="M20.1057 6.32906C20.1057 9.41554 17.523 11.9179 14.337 11.9179C11.1509 11.9179 8.56787 9.41554 8.56787 6.32906C8.56787 3.24215 11.1509 0.740234 14.337 0.740234C17.523 0.740234 20.1057 3.24215 20.1057 6.32906Z" fill="#FFCE54"/>
<path d="M14.337 4.09375C14.0184 4.09375 13.7603 4.34379 13.7603 4.65248V8.00582C13.7603 8.31451 14.0184 8.5646 14.337 8.5646C14.6556 8.5646 14.9138 8.31451 14.9138 8.00582V4.65248C14.9138 4.34379 14.6556 4.09375 14.337 4.09375Z" fill="#E8AA3D"/>
<path d="M19.6257 19.7421C18.7349 17.769 16.7025 16.3887 14.337 16.3887C11.9715 16.3887 9.93863 17.769 9.04832 19.7421L8.56787 20.3012V21.9779C8.56787 25.0652 11.1509 27.5671 14.337 27.5671C17.523 27.5671 20.1057 25.0652 20.1057 21.9779V20.3012L19.6257 19.7421Z" fill="#F6BB42"/>
<path d="M20.1057 20.3012C20.1057 23.3885 17.523 25.8904 14.337 25.8904C11.1509 25.8904 8.56787 23.3885 8.56787 20.3012C8.56787 17.2147 11.1509 14.7124 14.337 14.7124C17.523 14.7124 20.1057 17.2147 20.1057 20.3012Z" fill="#FFCE54"/>
<path d="M14.337 18.0654C14.0184 18.0654 13.7603 18.3159 13.7603 18.6246V21.978C13.7603 22.2866 14.0184 22.5371 14.337 22.5371C14.6556 22.5371 14.9138 22.2866 14.9138 21.978V18.6246C14.9138 18.3159 14.6556 18.0654 14.337 18.0654Z" fill="#E8AA3D"/>
</g>
<defs>
<clipPath id="clip0_409_14600">
<rect width="27.6923" height="26.8269" fill="white" transform="translate(0.490723 0.740234)"/>
</clipPath>
</defs>
</svg>
