<svg width="11" height="18" viewBox="0 0 11 18" fill="none" xmlns="http://www.w3.org/2000/svg">
<path d="M9.47126 0.223633C9.47126 0.771893 9.02676 1.21639 8.4785 1.21639C7.93015 1.21639 7.48574 0.771893 7.48574 0.223633H6.49298C6.49298 0.771893 6.04848 1.21639 5.50022 1.21639C4.95196 1.21639 4.50738 0.771893 4.50738 0.223633H3.51462C3.51462 0.771893 3.07012 1.21639 2.52186 1.21639C1.97351 1.21639 1.5291 0.771893 1.5291 0.223633H0.0993652V17.7761H1.53106C1.55266 17.2469 1.98726 16.8243 2.52177 16.8243C3.05629 16.8243 3.49089 17.247 3.51249 17.7761H4.50942C4.53102 17.2469 4.96562 16.8243 5.50013 16.8243C6.03465 16.8243 6.46925 17.247 6.49085 17.7761H7.48778C7.50938 17.2469 7.94398 16.8243 8.4785 16.8243C9.01301 16.8243 9.44761 17.247 9.46921 17.7761H10.9009V0.223633H9.47126Z" fill="white"/>
<path d="M9.63322 3.18994H1.36841V4.00824H9.63322V3.18994Z" fill="#C0C0B8"/>
<path d="M9.63322 5.62451H1.36841V6.44281H9.63322V5.62451Z" fill="#C0C0B8"/>
<path d="M9.63322 8.32471H1.36841V9.14301H9.63322V8.32471Z" fill="#C0C0B8"/>
<path d="M9.6328 12.9072H6.85059V13.7255H9.6328V12.9072Z" fill="#C0C0B8"/>
</svg>
