<svg width="30" height="27" viewBox="0 0 30 27" fill="none" xmlns="http://www.w3.org/2000/svg">
<g clip-path="url(#clip0_409_14656)">
<path d="M27.5632 12.4805H25.2832V20.8205H27.5632C28.7632 20.8205 29.7232 19.8605 29.7232 18.6605V14.7005C29.7232 13.5005 28.7632 12.4805 27.5632 12.4805Z" fill="#53B1E2"/>
<path d="M3.08334 12.4805H5.36334V20.8205H3.08334C1.88334 20.8205 0.92334 19.8605 0.92334 18.6605V14.7005C0.92334 13.5005 1.88334 12.4805 3.08334 12.4805Z" fill="#53B1E2"/>
<path d="M26.1234 11.5805V22.3805C26.1234 24.5405 24.3234 26.3405 22.1634 26.3405H17.5434C17.0634 26.3405 16.7034 25.9805 16.7034 25.5005C16.7034 25.0205 17.0634 24.6605 17.5434 24.6605H22.1634C23.4234 24.6605 24.4434 23.6405 24.4434 22.3805V11.8805C24.4434 6.96046 20.6634 2.76046 15.8034 2.52045C10.5834 2.28045 6.20344 6.42045 6.20344 11.5805V21.3005C6.20344 21.7805 5.84344 22.1405 5.36344 22.1405C4.94344 22.1405 4.52344 21.7205 4.52344 21.3005V11.8805C4.52344 6.06046 9.08344 1.08045 14.9034 0.840455C21.0234 0.600455 26.1234 5.52045 26.1234 11.5805Z" fill="#E7E3E6"/>
<path d="M21.0235 5.16C20.6635 5.16 20.3635 5.04 20.0635 4.86C18.6835 3.9 17.0635 3.36 15.3235 3.36C13.5835 3.36 11.9635 3.9 10.5835 4.86C9.8035 5.4 8.7835 5.22 8.2435 4.44C7.7035 3.66 7.8835 2.64 8.6635 2.1C10.6435 0.72 12.9235 0 15.3235 0C17.7235 0 20.0035 0.72 21.9835 2.1C22.7635 2.64 22.9435 3.66 22.4035 4.44C22.0435 4.86 21.5635 5.16 21.0235 5.16Z" fill="#53B1E2"/>
<path d="M16.9434 27C17.7718 27 18.4434 26.3284 18.4434 25.5C18.4434 24.6716 17.7718 24 16.9434 24C16.1149 24 15.4434 24.6716 15.4434 25.5C15.4434 26.3284 16.1149 27 16.9434 27Z" fill="#53B1E2"/>
</g>
<defs>
<clipPath id="clip0_409_14656">
<rect width="30" height="27" fill="white"/>
</clipPath>
</defs>
</svg>
