<svg width="21" height="29" viewBox="0 0 21 29" fill="none" xmlns="http://www.w3.org/2000/svg">
<path d="M0.0541992 19.4086C0.280386 21.827 1.33848 24.0921 3.04806 25.8175C4.75763 27.543 7.01281 28.622 9.42903 28.8706C11.8452 29.1191 14.2729 28.5218 16.2979 27.1805C18.323 25.8393 19.82 23.837 20.5338 21.5153C13.2263 21.7506 6.82652 16.3469 0.0541992 19.4086Z" fill="#D0D7DF"/>
<path d="M10.4997 7.94531C7.71641 7.94531 5.04714 9.05096 3.07908 11.019C1.11102 12.9871 0.00537109 15.6564 0.00537109 18.4396C0.00537109 18.7667 0.0246104 19.0894 0.0543443 19.4086C6.82754 16.3477 13.2264 21.7506 20.534 21.5153C21.015 19.946 21.1213 18.2858 20.8442 16.668C20.5671 15.0502 19.9144 13.5199 18.9385 12.2002C17.9626 10.8804 16.6908 9.80798 15.2252 9.06902C13.7595 8.33006 12.141 7.94518 10.4997 7.94531Z" fill="#D0D7DF"/>
<path d="M1.77246 18.8033C1.85343 20.8226 2.63226 22.7514 3.97617 24.2608C5.32009 25.7701 7.14589 26.7667 9.14234 27.0805C11.1388 27.3943 13.1823 27.006 14.9245 25.9818C16.6666 24.9575 17.9997 23.3607 18.6963 21.4636C12.7486 20.9485 7.35106 17.3726 1.77246 18.8033Z" fill="#49AAEE"/>
<path d="M13.1231 1.82324H7.87598V8.81944H13.1231V1.82324Z" fill="#D0D7DF"/>
<path d="M13.9977 0.0742188H7.00148C6.51849 0.0742188 6.12695 0.465757 6.12695 0.948744V1.82327C6.12695 2.30626 6.51849 2.69779 7.00148 2.69779H13.9977C14.4807 2.69779 14.8722 2.30626 14.8722 1.82327V0.948744C14.8722 0.465757 14.4807 0.0742188 13.9977 0.0742188Z" fill="#D0D7DF"/>
</svg>
