<svg width="69" height="69" viewBox="0 0 69 69" fill="none" xmlns="http://www.w3.org/2000/svg">
<g clip-path="url(#clip0_409_14455)">
<rect x="0.5" y="0.5" width="68" height="68" rx="34" fill="#70B9DB"/>
<g clip-path="url(#clip1_409_14455)">
<path d="M8.65126 250.695C11.4491 246.971 8.04487 229.945 8.16455 225.594H20.8747C21.021 229.934 17.8268 246.998 20.4971 250.687C21.2524 252.019 7.89062 252.006 8.65126 250.695Z" fill="#F99370"/>
<path d="M70.8857 255.821H48.6355C48.3241 255.821 48.016 255.756 47.731 255.629C47.446 255.503 47.1903 255.317 46.9803 255.086C46.7703 254.854 46.6106 254.58 46.5114 254.283C46.4122 253.985 46.3757 253.67 46.4041 253.357C46.6169 251.038 47.1116 247.853 46.952 246.387C47.0398 245.028 45.0903 227.425 44.9547 225.602H58.9707L56.7101 243.778C56.5795 244.818 56.8109 245.871 57.3649 246.757C57.9188 247.644 58.7609 248.309 59.7473 248.639C62.4973 249.553 65.6277 249.95 67.6968 250.489C69.6942 250.995 71.4894 251.698 72.3857 253.245C72.5317 253.508 72.6069 253.806 72.6037 254.108C72.6005 254.409 72.519 254.705 72.3674 254.966C72.2158 255.226 71.9993 255.442 71.7394 255.592C71.4795 255.742 71.1852 255.821 70.8857 255.821Z" fill="#F99370"/>
<path d="M45.6621 253.456V253.48C45.7407 254.126 46.0511 254.721 46.5346 255.152C47.0182 255.583 47.6416 255.821 48.2872 255.821H70.7022C71.0018 255.822 71.2976 255.753 71.5656 255.618C71.8336 255.483 72.0664 255.286 72.245 255.044C72.4237 254.801 72.5432 254.52 72.594 254.222C72.6448 253.925 72.6253 253.619 72.5373 253.33C71.3564 249.609 67.6543 247.304 57.1569 246.376C57.1569 246.376 53.2951 247.537 46.9494 246.376C46.952 246.379 45.2525 250.086 45.6621 253.456Z" fill="#395B96"/>
<path d="M9.68319 255.821H19.4731C19.7986 255.823 20.121 255.758 20.4209 255.631C20.7209 255.503 20.9922 255.316 21.2186 255.081C21.445 254.845 21.6217 254.566 21.7381 254.259C21.8545 253.953 21.9082 253.626 21.896 253.298C21.4731 244.022 7.62998 243.947 7.26828 253.298C7.25648 253.625 7.31022 253.951 7.42629 254.257C7.54235 254.563 7.71836 254.841 7.94379 255.077C8.16922 255.312 8.43945 255.5 8.73831 255.628C9.03717 255.755 9.35854 255.821 9.68319 255.821Z" fill="#395B96"/>
<path d="M65.4308 252.62C65.5302 252.62 65.6272 252.59 65.7096 252.534C65.7921 252.478 65.8561 252.399 65.8936 252.306C66.7952 250.062 68.4229 249.376 68.492 249.357C69.0905 249.124 68.7208 248.175 68.1224 248.422C68.0372 248.457 66.0399 249.274 64.9707 251.936C64.9421 252.012 64.932 252.094 64.9413 252.174C64.9505 252.255 64.979 252.332 65.0241 252.399C65.0693 252.466 65.1298 252.521 65.2007 252.56C65.2715 252.598 65.3504 252.619 65.4308 252.62Z" fill="#E8C0A6"/>
<path d="M61.5558 252.159C61.6622 252.159 61.7657 252.124 61.8513 252.06C61.937 251.997 62.0002 251.907 62.0319 251.805C62.5643 250.204 63.6535 248.85 65.0984 247.995C65.6729 247.7 65.2075 246.794 64.6383 247.103C62.9517 248.076 61.6836 249.645 61.0798 251.507C61.0569 251.583 61.0519 251.662 61.065 251.74C61.0781 251.817 61.109 251.89 61.1553 251.954C61.2016 252.017 61.2619 252.069 61.3314 252.104C61.401 252.14 61.4778 252.158 61.5558 252.159Z" fill="#E8C0A6"/>
<path d="M57.1462 251.601C57.2499 251.602 57.3511 251.569 57.4356 251.509C57.5201 251.448 57.5835 251.362 57.617 251.263C58.2191 249.592 59.2992 248.137 60.7207 247.084C61.2526 246.733 60.7048 245.878 60.1702 246.245C58.5638 247.418 57.3458 249.052 56.6755 250.934C56.6497 251.009 56.6422 251.09 56.6536 251.169C56.665 251.249 56.6949 251.324 56.7409 251.389C56.7869 251.454 56.8477 251.508 56.9181 251.545C56.9886 251.581 57.0668 251.601 57.1462 251.601Z" fill="#E8C0A6"/>
<path d="M10.9784 249.384C14.7843 247.218 18.1593 250.057 18.7152 249.089C19.162 248.07 14.1779 246.545 10.7364 248.448C10.6439 248.505 10.5719 248.589 10.5311 248.69C10.4904 248.791 10.4831 248.902 10.5103 249.007C10.5375 249.113 10.5979 249.206 10.6822 249.274C10.7666 249.342 10.8705 249.381 10.9784 249.384Z" fill="#E8C0A6"/>
<path d="M72.5798 253.456H45.6621V253.48C45.7407 254.126 46.0511 254.721 46.5346 255.152C47.0182 255.583 47.6416 255.821 48.2872 255.821L70.9389 255.821C71.2165 255.822 71.4904 255.756 71.7377 255.629C71.9849 255.501 72.1983 255.316 72.36 255.089C72.5217 254.861 72.627 254.598 72.6671 254.321C72.7072 254.044 72.6809 253.761 72.5905 253.497C72.5857 253.484 72.5822 253.47 72.5798 253.456Z" fill="#4867AA"/>
<path d="M9.48372 255.821H19.6593C19.9592 255.822 20.2562 255.762 20.5325 255.645C20.8089 255.528 21.0588 255.355 21.2675 255.138C21.4761 254.921 21.6391 254.664 21.7467 254.382C21.8542 254.1 21.9041 253.799 21.8934 253.497V253.456H7.25232C7.251 253.472 7.251 253.489 7.25232 253.505C7.24268 253.806 7.29331 254.106 7.40119 254.387C7.50907 254.668 7.67199 254.924 7.88024 255.14C8.08848 255.356 8.33777 255.528 8.61327 255.645C8.88876 255.762 9.1848 255.822 9.48372 255.821Z" fill="#4867AA"/>
<path d="M42.7844 24.2299C42.7844 24.2299 44.0664 16.9513 37.7312 14.5948L33.7418 17.6269L42.7844 24.2299Z" fill="#8C4225"/>
<path d="M53.7526 78.6037C71.5426 92.11 99.3832 88.0672 109.678 68.4163L107.072 62.9553C77.2261 75.8933 65.484 50.5562 41.2605 49.0978L46.1382 55.3711C46.1382 55.3711 53.335 78.1693 53.7526 78.6037Z" fill="white"/>
<path d="M6.62732 242.918C6.62732 242.918 17.3268 245.54 22.8375 242.725C25.7072 224.591 33.67 174.094 36.444 139.511C36.5504 141.527 42.3749 222.886 43.4839 242.725C47.2898 244.006 54.9414 245.556 59.2234 242.457C61.1463 221.573 67.3218 152.808 58.0186 96.646C58.0186 96.646 32.5264 99.5038 12.6167 93.429C7.13529 111.243 5.68316 221.54 6.62732 242.918Z" fill="#CE4ABF"/>
<path d="M38.4919 48.6207C38.6701 43.0819 39.3509 32.0957 34.8908 30.6239C31.6993 29.5033 27.8987 32.2512 28.8828 35.8918C29.1727 35.7068 30.1035 46.0792 29.4626 48.9611C21.0077 51.5187 46.4307 59.9233 38.4919 48.6207Z" fill="#F99370"/>
<path d="M28.7977 35.42C28.8189 35.5754 28.8455 35.7363 28.8828 35.8918C29.0929 35.7524 29.6806 41.4761 29.6806 45.6288C33.553 47.4062 37.7711 46.7011 38.561 46.5456C38.7764 40.8112 39.1248 32.2243 34.8881 30.6239C31.8695 29.321 28.2657 32.0983 28.7977 35.42Z" fill="#E57D61"/>
<path d="M22.7099 31.5916C23.3615 35.6585 24.7232 40.2455 27.9093 42.9345C32.5557 46.4813 39.3616 46.1033 44.0876 42.1945C47.7339 38.7603 48.8749 34.1331 46.968 30.5729C45.7127 28.4711 43.4015 26.624 42.7765 24.2299C37.3748 8.30815 20.4146 17.2114 22.7099 31.5916Z" fill="#F99370"/>
<path d="M22.7125 31.5943C23.3615 35.6612 24.7258 40.2456 27.912 42.9372C28.1446 43.1257 28.3899 43.2976 28.6461 43.4519C26.2179 41.0391 24.9226 35.9186 24.9226 35.9186L25.4865 31.5219C29.4014 27.5006 27.7179 23.0155 27.7179 23.0155C34.2658 24.8653 36.4706 20.793 36.4706 20.793C38.5424 21.0611 40.7259 19.9888 40.7259 19.9888C33.2684 9.12582 20.4067 20.6778 22.7125 31.5943Z" fill="#E57D61"/>
<path d="M24.7205 20.9914C27.5024 22.1013 28.4812 28.6186 21.904 33.0715C21.904 33.0715 18.7178 22.3372 24.7205 20.9914Z" fill="#8C4225"/>
<path d="M104.58 63.9955C103.468 69.5101 108.303 70.7942 108.303 70.7942C108.814 70.0353 109.273 69.2427 109.678 68.4216L107.072 62.9607C106.224 63.2619 105.392 63.6073 104.58 63.9955Z" fill="#D1E0F2"/>
<path d="M10.0608 118.61C23.8907 124.412 58.3829 124.884 61.7287 120.777C68.266 104.504 56.1994 61.1243 41.2499 49.0978C41.1195 49.063 39.4334 48.6287 38.4865 48.626C38.5504 48.8941 40.2233 55.9073 29.4439 48.9611C29.3828 49.0362 26.8163 49.0817 26.1327 49.5563C26.92 60.9018 5.0289 106.187 10.0608 118.61Z" fill="#E8C0A6"/>
<path d="M54.46 58.8348L61.1516 82.9949C71.5878 88.791 89.423 87.6034 97.705 81.0781C68.0532 92.6569 65.633 69.7755 54.859 58.8482L54.46 58.8348Z" fill="#D1E0F2"/>
<path d="M25.803 14.7316C27.9838 12.1257 31.9519 10.8496 32.8615 8.19824C32.8615 8.19824 34.2073 10.7397 34.0503 13.5788C35.1213 12.39 36.0546 11.0822 36.8323 9.68078C37.8155 10.6499 38.4532 11.9195 38.6461 13.2919C40.7889 12.8676 43.008 13.0857 45.0291 13.9193C43.2844 18.8923 39.2126 19.9861 36.0184 20.0049C33.3589 22.5624 29.1354 23.7206 25.0423 21.1898L21.1008 26.3264C15.4837 16.5412 25.803 14.7316 25.803 14.7316Z" fill="#8C4225"/>
<path d="M43.4839 242.725C43.5743 240.98 36.444 139.511 36.444 139.511C36.444 139.511 39.811 141.323 40.6115 152.111C41.3084 161.494 45.4626 223.739 46.5345 239.835C53.851 241.484 59.5665 238.829 59.5665 238.829C59.3431 241.189 59.234 242.467 59.234 242.467C55.7313 245.012 49.9733 244.438 45.9121 243.443C44.9254 243.213 44.1594 242.966 43.7844 242.837L43.4839 242.725Z" fill="#A523A2"/>
<path d="M6.62732 242.918C6.62732 242.918 17.3268 245.54 22.8375 242.725C22.8375 242.725 23.0662 241.32 23.4625 238.808C23.4625 238.808 15.9252 240.862 6.497 238.733C6.45445 241.181 6.66189 242.717 6.62732 242.918Z" fill="#A523A2"/>
<path d="M-0.165287 191.571C7.39542 193.737 15.2761 194.541 23.1141 193.946C25.0556 193.785 26.1487 193.581 26.1487 193.581C26.1487 193.581 29.5716 122.27 30.6088 107.211C32.287 91.6622 33.5158 55.7384 26.1487 49.5723L23.4625 50.0201C5.5688 72.4054 1.48632 180.598 -0.165287 191.571Z" fill="white"/>
<path d="M58.9707 194.136C59.7762 194.245 60.5867 194.312 61.3989 194.337C64.2846 194.447 69.0585 194.169 71.7288 191.56C72.0692 185.807 76.6995 56.5292 44.5211 49.3981C43.4513 49.1645 42.3572 49.0637 41.2631 49.0978C62.2713 69.0248 61.0478 177.394 58.9707 194.136Z" fill="white"/>
<path d="M28.2312 39.6102C28.2312 39.6102 39.4174 46.3338 44.0956 42.1945C48.2233 38.5405 48.8829 34.1519 46.9759 30.5702C46.9759 30.5702 41.7126 32.42 29.8189 31.9107C29.8189 31.9134 30.6434 37.3207 28.2312 39.6102Z" fill="white"/>
<path d="M29.819 32.1466C29.8751 32.1468 29.9295 32.1264 29.9718 32.0892C30.0142 32.052 30.0417 32.0006 30.0492 31.9444C30.0567 31.8883 30.0437 31.8313 30.0125 31.7842C29.9814 31.737 29.9344 31.7029 29.8801 31.6882L24.9546 30.3477C23.3561 30.8651 29.8748 32.0018 29.819 32.1466Z" fill="#C16256"/>
<path d="M28.2312 39.8327C28.2803 39.8313 28.3278 39.8143 28.3668 39.7841C28.4058 39.7539 28.4344 39.7121 28.4486 39.6647C28.4627 39.6172 28.4617 39.5664 28.4455 39.5196C28.4294 39.4728 28.3991 39.4322 28.3588 39.4038C28.2179 39.4467 23.553 35.8596 23.5184 36.4414C23.17 36.8113 28.0689 39.7121 28.2312 39.8327Z" fill="#C16256"/>
<path d="M20.1487 33.6479C21.1407 38.2697 26.7418 37.0767 25.7923 32.4442C24.7923 27.8223 19.2072 29.0153 20.1487 33.6479Z" fill="#F99370"/>
<path d="M21.6008 34.6023C21.6368 34.6021 21.6723 34.5935 21.7044 34.5772C21.7365 34.5608 21.7644 34.5371 21.7858 34.5079C21.8073 34.4788 21.8216 34.445 21.8279 34.4092C21.8341 34.3735 21.8319 34.3368 21.8216 34.302C20.9492 31.8436 22.029 30.8169 23.6833 31.4925C25.3003 30.9348 19.5742 29.4309 21.388 34.4414C21.4028 34.487 21.4311 34.5269 21.4692 34.5557C21.5073 34.5845 21.5532 34.6008 21.6008 34.6023Z" fill="#C16256"/>
<path d="M23.7604 34.2779C24.4625 34.1787 23.1327 32.0126 21.3668 31.8651C21.3109 31.8688 21.2583 31.8927 21.2186 31.9326C21.1789 31.9724 21.1549 32.0253 21.151 32.0816C21.1471 32.1379 21.1636 32.1937 21.1974 32.2387C21.2312 32.2836 21.28 32.3147 21.3348 32.3262C23.1141 32.5192 23.3375 34.2189 23.7604 34.2779Z" fill="#C16256"/>
<path d="M25.6992 63.1886C26.8561 72.2687 18.3827 86.9117 31.6408 91.0135L21.6567 93.4263L18.8694 82.5419L25.6992 63.1886Z" fill="#D1E0F2"/>
<path d="M58.9707 194.136C59.7762 194.245 60.5867 194.312 61.3989 194.337C63.367 175.52 62.8138 151.374 62.3723 139.503C61.9095 127.246 60.4308 101.922 56.3484 79.609C52.2659 57.296 44.5211 49.3981 44.5211 49.3981C43.4513 49.1645 42.3572 49.0637 41.2631 49.0978C62.2713 69.0248 61.0478 177.394 58.9707 194.136Z" fill="#D1E0F2"/>
<path d="M8.21775 103.638L8.04488 105.356C15.9252 109.278 30.6115 107.209 30.6115 107.209C30.7604 104.917 30.9049 102.714 31.045 100.598L10.2843 94.4557C9.6167 98.1178 8.73371 99.8229 8.21775 103.638Z" fill="#D1E0F2"/>
<path d="M23.1141 193.935C25.0556 193.774 26.1487 193.571 26.1487 193.571C26.1487 193.571 29.5716 122.259 30.6088 107.201C32.287 91.6515 33.5158 55.7277 26.1487 49.5616L23.4625 50.0201C25.9413 51.4945 29.3535 62.3521 29.2578 77.4884C29.1301 97.7693 27.0849 122.385 26.0663 139.503C25.1912 154.181 23.5609 185.354 23.1141 193.935Z" fill="#D1E0F2"/>
<path d="M26.154 49.5563C28.4599 51.7385 42.5185 61.1886 41.2605 49.0978C41.1302 49.063 39.444 48.6287 38.4972 48.626C38.561 48.8941 39.6515 55.4542 29.4546 48.9611C29.4174 48.9477 26.8216 49.1166 26.154 49.5563Z" fill="#D1A68F"/>
<path d="M112.293 54.0414C113.444 54.5373 111.184 57.2852 111.152 58.4568C112.569 57.9571 113.925 57.2941 115.192 56.481C117.142 54.5525 118.999 52.5294 120.761 50.4115C121.309 49.7198 122.423 50.5348 121.923 51.2774C120.474 53.5374 118.918 55.7411 117.261 57.8563L117.288 57.8884C119.591 56.4357 121.798 54.8346 123.897 53.095C124.152 52.8738 124.477 52.7521 124.814 52.7519C127.721 52.8055 119.061 59.3576 118.37 59.9527V59.9688C120.744 58.9658 123.003 57.7074 125.109 56.2156C125.26 56.1018 125.432 56.0195 125.615 55.9734C125.797 55.9274 125.987 55.9186 126.173 55.9475C128.748 56.4488 119.708 62.1698 118.809 62.5237C118.809 62.5371 118.809 62.5478 118.809 62.5586C120.77 62.0291 122.683 61.3322 124.527 60.4755C124.825 60.3345 125.163 60.3032 125.482 60.3871C128.085 61.1189 119.631 64.9204 118.772 65.1939C115.961 67.0608 112.787 68.302 109.463 68.8345C107.867 69.0812 105.657 65.1724 106.399 63.2047C106.822 62.0921 108.359 59.6042 108.769 59.001C109.28 57.8429 110.835 53.583 112.293 54.0414Z" fill="#F99370"/>
<path d="M55.3776 88.1476C56.1755 89.1288 52.8936 90.4934 52.3217 91.5148C53.8064 91.7407 55.3119 91.7929 56.8085 91.6703C59.4335 90.8928 62.0106 89.9733 64.5479 88.9358C65.3457 88.5819 65.9601 89.8285 65.1729 90.2494C62.8404 91.563 60.4441 92.7775 57.992 93.8632C57.992 93.8874 57.992 93.8793 57.992 93.9034C60.7011 93.7068 63.3947 93.3334 66.0559 92.7855C66.3846 92.7109 66.729 92.7575 67.0266 92.9169C69.5718 94.3351 58.8776 96.0401 57.984 96.2385V96.2599C60.5527 96.4918 63.1387 96.4424 65.6968 96.1125C65.8829 96.0833 66.0729 96.0919 66.2557 96.138C66.4384 96.184 66.6101 96.2665 66.7607 96.3806C68.8032 98.0374 58.1595 98.8282 57.1861 98.7183V98.7478C59.1638 99.2034 61.1764 99.4886 63.2021 99.6003C63.5318 99.617 63.8453 99.7498 64.0878 99.9756C66.0505 101.852 56.8191 101.225 55.9281 101.048C54.8643 101.11 51.6356 102.311 46.7818 100.606C45.2685 100.069 44.593 93.0107 46.1275 92.6568C47.2792 92.3887 49.3191 91.2091 49.96 90.8687C50.9414 90.0993 54.2925 87.0699 55.3776 88.1476Z" fill="#F99370"/>
<path d="M43.4547 101.804C44.5451 101.447 45.6559 101.054 46.7871 100.627C46.9733 99.6433 48.1169 94.9973 46.1329 92.6783C-1.24242 90.5926 34.8988 74.148 23.4625 50.0201C-10.5137 52.2774 -27.5484 121.892 43.4547 101.804Z" fill="white"/>
<path d="M43.452 101.804C44.5451 101.439 45.6542 101.048 46.7871 100.627C46.9733 99.6433 48.1169 94.9973 46.1329 92.6783C46.1329 92.6783 44.835 92.5389 43.452 92.5389C43.452 92.5389 45.8031 96.6862 43.452 101.804Z" fill="#D1E0F2"/>
</g>
</g>
<defs>
<clipPath id="clip0_409_14455">
<rect x="0.5" y="0.5" width="68" height="68" rx="34" fill="white"/>
</clipPath>
<clipPath id="clip1_409_14455">
<rect width="146.264" height="247.623" fill="white" transform="translate(-5.91504 8.19824)"/>
</clipPath>
</defs>
</svg>
