<svg width="27" height="21" viewBox="0 0 27 21" fill="none" xmlns="http://www.w3.org/2000/svg">
<path d="M26.2381 2.79492H13.7837V8.97185H26.2381V2.79492Z" fill="#632F00"/>
<path d="M13.7855 2.79492H0.761719V8.97185H13.7855V2.79492Z" fill="#804000"/>
<path d="M24.1786 0.735352H3.58936V11.0301H24.1786V0.735352Z" fill="#2C9984"/>
<path d="M24.1786 0.735352H13.7837V11.0301H24.1786V0.735352Z" fill="#207A69"/>
<path d="M23.4307 1.39062H4.33887V10.3752H23.4307V1.39062Z" fill="#90DFAA"/>
<path d="M23.4306 1.39062H13.7837V10.3752H23.4306V1.39062Z" fill="#74C48A"/>
<path d="M13.8841 8.97119C15.0212 8.97119 15.943 7.58848 15.943 5.88281C15.943 4.17715 15.0212 2.79443 13.8841 2.79443C12.747 2.79443 11.8252 4.17715 11.8252 5.88281C11.8252 7.58848 12.747 8.97119 13.8841 8.97119Z" fill="#2C9984"/>
<path d="M13.8846 2.79443C13.8509 2.79443 13.8179 2.79949 13.7847 2.80202V8.96386C13.818 8.96631 13.8509 8.97145 13.8846 8.97145C15.0216 8.97145 15.9435 7.58864 15.9435 5.88307C15.9435 4.17707 15.0218 2.79443 13.8846 2.79443Z" fill="#207A69"/>
<path d="M26.2383 5.85205H0.761719V20.2642H26.2383V5.85205Z" fill="#935635"/>
<path d="M26.2381 5.85205H13.7837V20.2642H26.2381V5.85205Z" fill="#804000"/>
<path d="M24.8471 14.9629H15.2612V17.3593H24.8471V14.9629Z" fill="#57442F"/>
</svg>
