<svg width="30" height="30" viewBox="0 0 30 30" fill="none" xmlns="http://www.w3.org/2000/svg">
<g clip-path="url(#clip0_443_6523)">
<rect width="30" height="30" rx="15" fill="#6FB2A0"/>
<g clip-path="url(#clip1_443_6523)">
<path d="M18.6554 10.4695C18.6554 10.4695 19.221 7.25838 16.426 6.21875L14.666 7.55643L18.6554 10.4695Z" fill="#8C4225"/>
<path d="M23.4941 34.4577C31.3427 40.4164 43.6253 38.6328 48.1673 29.9633L47.0174 27.554C33.8501 33.262 28.6698 22.0838 17.9829 21.4404L20.1348 24.208C20.1348 24.208 23.3099 34.2661 23.4941 34.4577Z" fill="white"/>
<path d="M16.7612 21.2302C16.8398 18.7867 17.1402 13.9398 15.1724 13.2905C13.7644 12.7961 12.0877 14.0084 12.5219 15.6146C12.6497 15.533 13.0604 20.109 12.7776 21.3804C9.04757 22.5088 20.2636 26.2167 16.7612 21.2302Z" fill="#F99370"/>
<path d="M12.4846 15.4062C12.494 15.4748 12.5058 15.5458 12.5222 15.6144C12.6149 15.5529 12.8742 18.078 12.8742 19.9101C14.5826 20.6943 16.4435 20.3832 16.792 20.3146C16.8871 17.7847 17.0408 13.9964 15.1716 13.2903C13.8399 12.7155 12.25 13.9408 12.4846 15.4062Z" fill="#E57D61"/>
<path d="M9.79871 13.7172C10.0862 15.5114 10.6869 17.5351 12.0926 18.7213C14.1424 20.2861 17.145 20.1193 19.2301 18.3949C20.8387 16.8798 21.3421 14.8384 20.5008 13.2677C19.947 12.3404 18.9274 11.5255 18.6516 10.4693C16.2686 3.44503 8.78611 7.37292 9.79871 13.7172Z" fill="#F99370"/>
<path d="M9.80001 13.7182C10.0863 15.5125 10.6882 17.5349 12.0939 18.7224C12.1965 18.8056 12.3047 18.8815 12.4177 18.9495C11.3465 17.885 10.7751 15.626 10.7751 15.626L11.0238 13.6863C12.751 11.9122 12.0083 9.93346 12.0083 9.93346C14.897 10.7495 15.8697 8.95296 15.8697 8.95296C16.7838 9.07123 17.7471 8.59813 17.7471 8.59813C14.457 3.80566 8.78272 8.9021 9.80001 13.7182Z" fill="#E57D61"/>
<path d="M10.6856 9.04102C11.9129 9.53067 12.3447 12.4059 9.44304 14.3705C9.44304 14.3705 8.03737 9.63475 10.6856 9.04102Z" fill="#8C4225"/>
<path d="M4.21808 52.1079C10.3195 54.6674 25.5367 54.8756 27.0127 53.0636C29.8968 45.8844 24.5733 26.7464 17.9779 21.4406C17.9204 21.4252 17.1765 21.2336 16.7588 21.2324C16.787 21.3507 17.525 24.4448 12.7694 21.3803C12.7425 21.4134 11.6102 21.4335 11.3086 21.6428C11.6559 26.6482 1.99811 46.6271 4.21808 52.1079Z" fill="#E8C0A6"/>
<path d="M23.8062 25.7363L26.7583 36.3952C31.3625 38.9523 39.231 38.4283 42.8848 35.5495C29.8031 40.6578 28.7354 30.5631 23.9822 25.7422L23.8062 25.7363Z" fill="#D1E0F2"/>
<path d="M11.1631 6.27883C12.1253 5.1292 13.8759 4.56622 14.2772 3.39648C14.2772 3.39648 14.8709 4.51773 14.8017 5.77025C15.2741 5.24577 15.6859 4.66883 16.029 4.05055C16.4627 4.4781 16.7441 5.03822 16.8292 5.6437C17.7746 5.45651 18.7536 5.55273 19.6453 5.92046C18.8755 8.11445 17.0791 8.597 15.6699 8.60528C14.4966 9.73362 12.6333 10.2446 10.8275 9.12806L9.08863 11.3942C6.61052 7.07718 11.1631 6.27883 11.1631 6.27883Z" fill="#8C4225"/>
<path d="M-0.293457 84.2958C3.04215 85.2515 6.51893 85.6062 9.97687 85.3437C10.8334 85.2727 11.3157 85.1828 11.3157 85.1828C11.3157 85.1828 12.8258 53.7219 13.2834 47.0784C14.0237 40.2185 14.5658 24.3697 11.3157 21.6494L10.1306 21.8469C2.23629 31.7228 0.435192 79.4548 -0.293457 84.2958Z" fill="white"/>
<path d="M25.796 85.428C26.1514 85.4757 26.509 85.5053 26.8673 85.5167C28.1404 85.5651 30.2466 85.4421 31.4246 84.2913C31.5748 81.7532 33.6176 24.7189 19.4212 21.5728C18.9493 21.4698 18.4666 21.4253 17.9839 21.4404C27.2522 30.2317 26.7124 78.0417 25.796 85.428Z" fill="white"/>
<path d="M12.2344 17.2548C12.2344 17.2548 17.1695 20.2211 19.2334 18.395C21.0544 16.7829 21.3454 14.8467 20.5041 13.2666C20.5041 13.2666 18.1821 14.0827 12.9349 13.858C12.9349 13.8592 13.2986 16.2447 12.2344 17.2548Z" fill="white"/>
<path d="M12.9351 13.9616C12.9599 13.9617 12.9839 13.9527 13.0026 13.9363C13.0213 13.9199 13.0334 13.8972 13.0367 13.8724C13.04 13.8476 13.0343 13.8225 13.0206 13.8017C13.0068 13.7809 12.9861 13.7658 12.9621 13.7593L10.7891 13.168C10.0839 13.3962 12.9598 13.8977 12.9351 13.9616Z" fill="#C16256"/>
<path d="M12.2345 17.3525C12.2561 17.3518 12.2771 17.3443 12.2943 17.331C12.3115 17.3177 12.3241 17.2993 12.3304 17.2783C12.3366 17.2574 12.3361 17.235 12.329 17.2143C12.3219 17.1937 12.3085 17.1758 12.2908 17.1632C12.2286 17.1821 10.1705 15.5996 10.1553 15.8563C10.0016 16.0195 12.1629 17.2992 12.2345 17.3525Z" fill="#C16256"/>
<path d="M8.66855 14.6247C9.10621 16.6638 11.5773 16.1374 11.1584 14.0937C10.7172 12.0546 8.25319 12.5809 8.66855 14.6247Z" fill="#F99370"/>
<path d="M9.30951 15.045C9.32539 15.0449 9.34104 15.0411 9.35521 15.0339C9.36938 15.0267 9.38169 15.0162 9.39114 15.0033C9.4006 14.9905 9.40695 14.9756 9.40968 14.9598C9.41242 14.944 9.41147 14.9278 9.4069 14.9125C9.02205 13.8279 9.49842 13.3749 10.2282 13.673C10.9416 13.427 8.41542 12.7635 9.21565 14.974C9.22215 14.9941 9.23466 15.0117 9.25145 15.0244C9.26825 15.0371 9.28853 15.0443 9.30951 15.045Z" fill="#C16256"/>
<path d="M10.2623 14.9024C10.572 14.8586 9.98536 13.9029 9.20626 13.8379C9.18162 13.8395 9.15839 13.8501 9.14089 13.8676C9.12339 13.8852 9.11281 13.9086 9.11109 13.9334C9.10937 13.9582 9.11664 13.9829 9.13155 14.0027C9.14646 14.0225 9.168 14.0363 9.19218 14.0413C9.97715 14.1265 10.0757 14.8763 10.2623 14.9024Z" fill="#C16256"/>
<path d="M11.1177 27.6572C11.6281 31.6632 7.88977 38.1233 13.7389 39.9329L9.33417 40.9974L8.10449 36.1955L11.1177 27.6572Z" fill="#D1E0F2"/>
<path d="M25.796 85.428C26.1514 85.4758 26.509 85.5054 26.8673 85.5167C27.7356 77.215 27.4915 66.562 27.2968 61.3248C27.0926 55.9173 26.4402 44.7451 24.6391 34.9012C22.838 25.0572 19.4212 21.5728 19.4212 21.5728C18.9493 21.4698 18.4666 21.4253 17.9839 21.4404C27.2522 30.2317 26.7124 78.0417 25.796 85.428Z" fill="#D1E0F2"/>
<path d="M9.97705 85.3398C10.8336 85.2688 11.3158 85.1789 11.3158 85.1789C11.3158 85.1789 12.8259 53.718 13.2835 47.0745C14.0239 40.2146 14.566 24.3658 11.3158 21.6455L10.1308 21.8478C11.2243 22.4983 12.7297 27.2884 12.6875 33.9661C12.6312 42.9136 11.7289 53.7736 11.2795 61.3254C10.8934 67.8009 10.1742 81.5538 9.97705 85.3398Z" fill="#D1E0F2"/>
<path d="M11.3184 21.6428C12.3357 22.6056 18.538 26.7748 17.983 21.4406C17.9255 21.4252 17.1816 21.2336 16.7639 21.2324C16.792 21.3507 17.2731 24.2449 12.7745 21.3803C12.7581 21.3744 11.6129 21.4489 11.3184 21.6428Z" fill="#D1A68F"/>
<path d="M18.9508 44.6935C19.4319 44.5358 19.922 44.3628 20.421 44.1743C20.5032 43.7402 21.0077 41.6905 20.1324 40.6675C-0.768469 39.7473 15.1762 32.4923 10.1308 21.8477C-4.85876 22.8435 -12.3741 53.5558 18.9508 44.6935Z" fill="white"/>
</g>
</g>
<defs>
<clipPath id="clip0_443_6523">
<rect width="30" height="30" rx="15" fill="white"/>
</clipPath>
<clipPath id="clip1_443_6523">
<rect width="64.5283" height="109.245" fill="white" transform="translate(-2.83008 3.39648)"/>
</clipPath>
</defs>
</svg>
